<svg xmlns="http://www.w3.org/2000/svg" width="240" height="240" viewBox="0 0 240 240">
  <g fill="none" stroke="#cbd5e1" stroke-width="1.6" stroke-linecap="round" stroke-linejoin="round">
    <!-- burbuja -->
    <g transform="translate(18 22) rotate(-8)">
      <path d="M0 4a4 4 0 0 1 4-4h18a4 4 0 0 1 4 4v11a4 4 0 0 1-4 4h-9l-5 5v-5h-4a4 4 0 0 1-4-4z"/>
    </g>
    <!-- corazon -->
    <g transform="translate(108 16) rotate(12)">
      <path d="M11 20l-1.4-1.3C4.4 13.9 1.6 11.3 1.6 8.1A4.4 4.4 0 0 1 11 5.5 4.4 4.4 0 0 1 20.4 8.1c0 3.2-2.8 5.8-8 10.6z"/>
    </g>
    <!-- estrella -->
    <g transform="translate(188 30) rotate(-6)">
      <path d="M11 1l2.8 6 6.4.8-4.7 4.4 1.2 6.4L11 16.4 5.1 19.6l1.2-6.4L1.6 8.8 8 8z"/>
    </g>
    <!-- sobre -->
    <g transform="translate(28 104) rotate(6)">
      <path d="M1 2h24v15H1z"/>
      <path d="M1 2l12 9 12-9"/>
    </g>
    <!-- burbuja con puntos -->
    <g transform="translate(132 100) rotate(-10)">
      <path d="M2 3a2 2 0 0 1 2-2h18a2 2 0 0 1 2 2v11a2 2 0 0 1-2 2H10l-5 5v-5H4a2 2 0 0 1-2-2z"/>
      <circle cx="9" cy="8.5" r="1.2" fill="#cbd5e1" stroke="none"/>
      <circle cx="13" cy="8.5" r="1.2" fill="#cbd5e1" stroke="none"/>
      <circle cx="17" cy="8.5" r="1.2" fill="#cbd5e1" stroke="none"/>
    </g>
    <!-- casa -->
    <g transform="translate(200 120) rotate(8)">
      <path d="M3 11L12 3l9 8"/>
      <path d="M5 9.5V20h14V9.5"/>
    </g>
    <!-- nube -->
    <g transform="translate(20 188)">
      <path d="M7 18a5 5 0 0 1 0-10 6 6 0 0 1 11-1 4 4 0 0 1 1 8z"/>
    </g>
    <!-- estrella pequena -->
    <g transform="translate(112 196) rotate(16)">
      <path d="M9 1l2.3 4.9 5.3.7-3.9 3.6 1 5.3L9 13.2 4.2 15.8l1-5.3L1.3 6.9l5.3-.7z"/>
    </g>
    <!-- burbuja -->
    <g transform="translate(190 198) rotate(12)">
      <path d="M0 4a4 4 0 0 1 4-4h16a4 4 0 0 1 4 4v9a4 4 0 0 1-4 4h-7l-5 5v-5h-4a4 4 0 0 1-4-4z"/>
    </g>
  </g>
</svg>
