<svg xmlns="http://www.w3.org/2000/svg" viewBox="0 0 64 64" fill="none">
  <!-- Burbuja trasera -->
  <path d="M37 8 H52 a6 6 0 0 1 6 6 V24 a6 6 0 0 1 -6 6 H46 l-3 5 l-1 -5 H37 a6 6 0 0 1 -6 -6 V14 a6 6 0 0 1 6 -6 Z" fill="#74c2f7"/>
  <!-- Burbuja frontal -->
  <path d="M13 16 H33 a7 7 0 0 1 7 7 V35 a7 7 0 0 1 -7 7 H22 l-4 7 l-1 -7 H13 a7 7 0 0 1 -7 -7 V23 a7 7 0 0 1 7 -7 Z" fill="#4dabf7" stroke="#ffffff" stroke-width="3" stroke-linejoin="round"/>
  <!-- Líneas de texto -->
  <path d="M14 26 H31" stroke="#ffffff" stroke-width="3.5" stroke-linecap="round"/>
  <path d="M14 33 H25" stroke="#ffffff" stroke-width="3.5" stroke-linecap="round"/>
</svg>
